<?xml version="1.0" encoding="UTF-8"?>
<svg width="283px" height="272px" viewBox="0 0 283 272" version="1.1" xmlns="http://www.w3.org/2000/svg" xmlns:xlink="http://www.w3.org/1999/xlink">
    <!-- Generator: Sketch 60.1 (88133) - https://sketch.com -->
    <title>编组 7备份 4</title>
    <desc>Created with Sketch.</desc>
    <defs>
        <linearGradient x1="50%" y1="0%" x2="50%" y2="99.6067356%" id="linearGradient-1">
            <stop stop-color="#C0C4CC" offset="0%"></stop>
            <stop stop-color="#F7FDFE" stop-opacity="0" offset="100%"></stop>
        </linearGradient>
        <linearGradient x1="50%" y1="0%" x2="50%" y2="100%" id="linearGradient-2">
            <stop stop-color="#FFFFFF" offset="0%"></stop>
            <stop stop-color="#C0C4CC" offset="100%"></stop>
        </linearGradient>
        <linearGradient x1="50%" y1="0%" x2="50%" y2="100%" id="linearGradient-3">
            <stop stop-color="#FFFFFF" offset="0%"></stop>
            <stop stop-color="#C0C4CC" offset="100%"></stop>
        </linearGradient>
        <linearGradient x1="50%" y1="0%" x2="50%" y2="100%" id="linearGradient-4">
            <stop stop-color="#FFFFFF" offset="0%"></stop>
            <stop stop-color="#C0C4CC" offset="100%"></stop>
        </linearGradient>
        <linearGradient x1="110.885287%" y1="36.2725206%" x2="43.1000634%" y2="67.8350125%" id="linearGradient-5">
            <stop stop-color="#EBECEF" offset="0.0475084459%"></stop>
            <stop stop-color="#C0C4CC" offset="100%"></stop>
        </linearGradient>
        <linearGradient x1="50%" y1="0%" x2="50%" y2="100%" id="linearGradient-6">
            <stop stop-color="#E3E3E3" offset="0%"></stop>
            <stop stop-color="#E3E5E8" offset="44.7462107%"></stop>
            <stop stop-color="#C0C4CC" offset="100%"></stop>
        </linearGradient>
        <linearGradient x1="50%" y1="0%" x2="50%" y2="100%" id="linearGradient-7">
            <stop stop-color="#E3E3E3" offset="0%"></stop>
            <stop stop-color="#E3E5E8" offset="44.7462107%"></stop>
            <stop stop-color="#C0C4CC" offset="100%"></stop>
        </linearGradient>
    </defs>
    <g id="5G合伙人1.0" stroke="none" stroke-width="1" fill="none" fill-rule="evenodd">
        <g id="课前准备-老师-没有学生备份" transform="translate(-671.000000, -762.000000)">
            <g id="编组-7备份-4" transform="translate(671.000000, 762.000000)">
                <g id="编组-5" transform="translate(0.000000, 109.000000)">
                    <ellipse id="椭圆形" fill="url(#linearGradient-1)" cx="135.606602" cy="139.5" rx="132.5" ry="23.5"></ellipse>
                    <g id="编组-6备份" transform="translate(25.000000, 107.000000)" fill="url(#linearGradient-2)">
                        <path d="M12.7008235,1.08446222 C13.0768986,1.32349384 13.3950012,1.64330237 13.6320179,2.02065062 L20.0533009,12.2438114 C22.7846971,16.5923976 21.4737055,22.3318573 17.1251194,25.0632535 C15.8544079,25.8614018 14.4126714,26.3381672 12.9241863,26.4577575 C12.9739086,26.6289944 13,26.8114502 13,27 L13,33 C13,34.1045695 12.1045695,35 11,35 C9.8954305,35 9,34.1045695 9,33 L9,27 C9,26.8493769 9.01665057,26.7026427 9.04821148,26.5615377 L9.07753146,26.4535933 C4.33190593,26.048023 0.606636623,22.0674563 0.606636623,17.2168064 C0.606636623,15.45537 1.10844184,13.7303845 2.05330086,12.2438114 L8.55971662,2.00708553 C9.44847632,0.608775051 11.302513,0.195702524 12.7008235,1.08446222 Z" id="形状结合"></path>
                    </g>
                    <circle id="椭圆形备份" fill="url(#linearGradient-3)" cx="7.5" cy="101" r="7.5"></circle>
                    <circle id="椭圆形备份-3" fill="url(#linearGradient-3)" cx="246.363961" cy="80.5" r="3"></circle>
                    <circle id="椭圆形备份-2" fill="url(#linearGradient-3)" cx="278.949747" cy="4.5" r="4"></circle>
                    <g id="编组-6" transform="translate(222.000000, 90.000000)" fill="url(#linearGradient-2)">
                        <path d="M12.7008235,1.08446222 C13.0768986,1.32349384 13.3950012,1.64330237 13.6320179,2.02065062 L20.0533009,12.2438114 C22.7846971,16.5923976 21.4737055,22.3318573 17.1251194,25.0632535 C15.8544079,25.8614018 14.4126714,26.3381672 12.9241863,26.4577575 C12.9739086,26.6289944 13,26.8114502 13,27 L13,33 C13,34.1045695 12.1045695,35 11,35 C9.8954305,35 9,34.1045695 9,33 L9,27 C9,26.8493769 9.01665057,26.7026427 9.04821148,26.5615377 L9.07753146,26.4535933 C4.33190593,26.048023 0.606636623,22.0674563 0.606636623,17.2168064 C0.606636623,15.45537 1.10844184,13.7303845 2.05330086,12.2438114 L8.55971662,2.00708553 C9.44847632,0.608775051 11.302513,0.195702524 12.7008235,1.08446222 Z" id="形状结合"></path>
                    </g>
                </g>
                <g id="编组" transform="translate(1.000000, 10.000000)">
                    <path d="M227.126293,18.6416288 C46.5657792,1.6218146 11.5253208,90.1236742 11.5253208,120.318476 C11.5253208,135.717905 24.5097134,149.630307 45.4030923,159.567024 C56.4770837,164.833722 69.7729102,168.983549 84.5348581,171.645951" id="路径" stroke="url(#linearGradient-5)" stroke-width="2" stroke-linecap="round" stroke-dasharray="6" fill-rule="nonzero" transform="translate(119.325807, 94.066762) rotate(-9.000000) translate(-119.325807, -94.066762) "></path>
                    <path d="M214.950046,28.825 C216.583391,29.9965 217.22683,31.5805 216.929858,33.5275 L198.072151,146.668 C197.824674,148.087 197.03275,149.1925 195.712875,149.9845 C195.036439,150.364 194.261013,150.5785 193.436092,150.5785 C192.891643,150.5785 192.2977,150.4465 191.670759,150.199 L158.310931,136.57 L140.476126,158.317 C139.585211,159.4555 138.380825,160 136.86297,160 C136.236029,160 135.691581,159.901 135.229625,159.703 C134.305713,159.3565 133.546785,158.7955 132.985838,157.9705 C132.424891,157.162 132.12792,156.271 132.12792,155.281 L132.12792,129.5905 L195.76237,51.5785 L117.031855,119.7235 L87.9451197,107.794 C86.1302922,107.1175 85.1403863,105.7645 85.0083989,103.735 C84.9094083,101.7715 85.6848346,100.3195 87.3676746,99.379 L209.918025,28.66 C210.660454,28.2145 211.43588,28 212.2773,28 C213.267206,28 214.158122,28.2805 214.950046,28.825 Z" id="路径" fill="url(#linearGradient-6)"></path>
                    <path d="" id="路径-2" stroke="#979797"></path>
                </g>
                <g id="编组" transform="translate(239.500000, 10.500000) rotate(-270.000000) translate(-239.500000, -10.500000) translate(229.000000, 0.000000)">
                    <path d="M12.8524232,3.61087571 C13.2434592,2.57134339 14.0954405,1.48074632 15.324324,1.60384882 C17.0688644,1.66053677 18.1030658,4.03459151 16.8328446,5.28506986 C15.4749329,6.47126135 13.5363183,6.60804191 12.0849409,7.63769564 C11.6200442,8.1301057 11.4730828,8.82358317 11.217154,9.43544824 C13.1790211,8.8761677 15.0604925,8.06566684 16.9033618,7.19999783 C18.7223707,6.38904104 19.5217681,3.99158162 18.6404553,2.2269603 C17.86659,0.515531446 15.7500107,-0.455458617 13.968388,0.212486496 C12.5969504,0.642585393 11.7856988,1.93804935 11.2876712,3.20600522 C10.5250522,5.12534056 9.73082203,7.03114981 8.9375037,8.93741501 C7.03080419,9.73135022 5.12486456,10.5257414 3.20585492,11.2877611 C1.93806539,11.7857944 0.642312169,12.5967512 0.212370119,13.9685083 C-0.45541545,15.7504551 0.515867555,17.8661466 2.22712506,18.6404766 C3.99111847,19.5217994 6.38900664,18.722241 7.19965029,16.9033634 C8.06546148,15.0603212 8.87595314,13.1791324 9.43537934,11.2173951 C8.82321724,11.4731748 8.12989959,11.619834 7.63719117,12.0847359 C6.60800505,13.5364337 6.47107404,15.4752222 5.284896,16.8328454 C4.03427985,18.1033849 1.66025201,17.0693238 1.6035647,15.3244597 C1.4803116,14.0952583 2.57089631,13.2434193 3.61087279,12.8523788 C5.80009696,11.9706001 7.98035452,11.0660246 10.1616759,10.1612971 L10.1616759,10.1616011 L12.8524232,3.61087571 Z" id="路径" fill="url(#linearGradient-6)"></path>
                    <path d="M20,15.9250845 C19.8717978,15.6127272 19.7383395,15.3005982 19.5856852,15 C17.4349277,15.7316878 15.7311639,17.4344689 15,19.5836378 C15.2995955,19.7371906 15.6117599,19.872477 15.9249526,20 C16.5474531,18.0728834 18.0719395,16.5488857 20,15.9250845 Z" id="路径" fill="url(#linearGradient-6)"></path>
                    <path d="M19.8509243,18 C18.8826537,18.117719 18.1148551,18.8874809 18,19.8562377 C18.989511,20.2640594 19.9847909,20.6578545 21,21 C20.6529435,19.986017 20.2586863,18.9905178 19.8509243,18 Z" id="路径" fill="url(#linearGradient-6)"></path>
                    <path d="M18,12.7951733 C16.779474,11.8014949 14.9073572,11.7263864 13.6195001,12.6416959 C12.0926058,13.6327177 11.5463556,15.8061552 12.410196,17.4062563 C12.5197598,17.625182 12.6521292,17.8203192 12.7989785,18 C13.7673147,15.6471232 15.6487227,13.7643387 18,12.7951733 Z" id="路径" fill="url(#linearGradient-6)"></path>
                    <path d="M1.34672146,5.47145234 L2.67154877,5.46297689 L2.83247485,5.62512971 C2.13473595,7.37538871 2.37952678,9.54590177 3.56933318,11 L9,4.36228867 C7.8101936,2.90835035 6.03451156,2.6089913 4.60240019,3.46197271 L4.46973429,3.26527846 L4.47666851,1.64598906 C4.80702492,1.46272759 4.97318438,0.997857523 4.84954604,0.573285781 C4.71871182,0.12456702 4.31548074,-0.109547109 3.94849077,0.050207007 C3.58163162,0.209641278 3.38995947,0.702816132 3.52092453,1.15105516 C3.57862242,1.34966838 3.68996234,1.5060643 3.82773078,1.60505107 L3.81935739,3.5483263 L4.03876638,3.87391125 C3.8744386,4.01895326 3.71704504,4.18142593 3.56907153,4.36228869 C3.42109803,4.54315145 3.2883013,4.73552802 3.16950382,4.93638003 L2.90312535,4.66820421 L1.31296624,4.6782788 C1.23184902,4.5095695 1.104024,4.37364258 0.941658729,4.30296058 C0.574930414,4.14304656 0.171306847,4.37748053 0.0409959508,4.82587945 C-0.0895766079,5.27475812 0.102095538,5.76745322 0.469085516,5.92704742 C0.816712038,6.07848597 1.19691628,5.87571501 1.34672146,5.47145234 Z" id="路径" fill="url(#linearGradient-7)"></path>
                </g>
            </g>
        </g>
    </g>
</svg>